<?xml version="1.0" encoding="utf-8"?>
<!-- Generator: Adobe Illustrator 21.0.0, SVG Export Plug-In . SVG Version: 6.00 Build 0)  -->
<svg version="1.1" id="Capa_1" xmlns="http://www.w3.org/2000/svg" xmlns:xlink="http://www.w3.org/1999/xlink" x="0px" y="0px"
	 viewBox="0 0 57 57" style="enable-background:new 0 0 57 57;" xml:space="preserve">
<style type="text/css">
	.st0{fill:#BE1E2D;}
</style>
<g>
	<path class="st0" d="M55.2,41.9l-1.4-0.3c-0.7-0.1-1.2-0.6-1.5-1.2c-0.3-0.6-0.2-1.3,0.2-1.9l0.9-1.2c0.3-0.4,0.3-1-0.1-1.3l-2-2
		c-0.3-0.3-0.9-0.4-1.3-0.1l-1.2,0.8c-0.6,0.4-1.3,0.5-1.9,0.2c-0.6-0.3-1.1-0.8-1.2-1.5l-0.2-1.5c-0.1-0.5-0.5-0.8-1-0.8h-2.8
		c-0.5,0-0.9,0.3-1,0.8l-0.4,1.9c-0.1,0.7-0.6,1.2-1.2,1.4c-0.6,0.3-1.3,0.2-1.9-0.2l-1.6-1.1c-0.4-0.3-0.9-0.2-1.3,0.1l-2,2
		c-0.3,0.3-0.4,0.9-0.1,1.3l0.9,1.2c0.4,0.6,0.5,1.2,0.2,1.9c-0.3,0.6-0.8,1.1-1.5,1.2l-1.4,0.3c-0.5,0.1-0.8,0.5-0.8,1v2.8
		c0,0.5,0.4,0.9,0.8,1l1.5,0.2c0.7,0.1,1.2,0.5,1.5,1.2c0.3,0.6,0.2,1.3-0.2,1.9l-0.8,1.2c-0.3,0.4-0.2,0.9,0.1,1.3l2,2
		c0.3,0.3,0.9,0.4,1.3,0.1l1.2-0.9c0.6-0.4,1.2-0.5,1.9-0.2c0.6,0.3,1.1,0.8,1.2,1.5l0.3,1.4c0.1,0.5,0.5,0.8,1,0.8h2.8
		c0.5,0,0.9-0.4,1-0.8l0.2-1.1c0.1-0.7,0.6-1.3,1.2-1.5c0.6-0.3,1.4-0.2,1.9,0.2l0.9,0.6c0.4,0.3,1,0.3,1.3-0.1l2-2
		c0.3-0.3,0.4-0.9,0.1-1.3l-0.8-1.2c-0.4-0.6-0.5-1.3-0.2-1.9c0.3-0.6,0.8-1.1,1.5-1.2l1.5-0.2c0.5-0.1,0.8-0.5,0.8-1v-2.8
		C56,42.4,55.7,42,55.2,41.9z M54,44.8l-0.7,0.1c-1.4,0.2-2.5,1.1-3,2.3c-0.5,1.3-0.4,2.7,0.4,3.8l0.4,0.5l-0.8,0.8l-0.2-0.1
		c-1.1-0.8-2.6-1-3.9-0.5c-1.3,0.5-2.2,1.7-2.4,3.1l0,0.2h-1.1l-0.1-0.6c-0.3-1.3-1.2-2.4-2.4-2.9c-1.3-0.5-2.7-0.3-3.8,0.5
		l-0.5,0.4L35,51.5l0.4-0.5c0.8-1.1,0.9-2.6,0.4-3.8c-0.5-1.3-1.7-2.1-3-2.3L32,44.8v-1.1l0.6-0.1c1.3-0.3,2.4-1.2,2.9-2.4
		c0.5-1.3,0.3-2.7-0.5-3.8l-0.4-0.5l0.8-0.8l0.9,0.6c1.1,0.8,2.5,0.9,3.7,0.4c1.2-0.5,2.1-1.6,2.4-2.9l0.2-1.1h1.1l0.1,0.7
		c0.2,1.4,1.1,2.5,2.3,3c1.3,0.5,2.7,0.4,3.8-0.4l0.5-0.4l0.8,0.8l-0.4,0.5c-0.8,1.1-1,2.5-0.5,3.8c0.5,1.3,1.6,2.2,2.9,2.4l0.6,0.1
		V44.8z"/>
	<path class="st0" d="M43,39c-2.8,0-5,2.2-5,5s2.2,5,5,5s5-2.2,5-5S45.8,39,43,39z M43,47c-1.7,0-3-1.3-3-3s1.3-3,3-3s3,1.3,3,3
		S44.7,47,43,47z"/>
	<path class="st0" d="M26,41c-0.8,0-1.6,0-2.4,0c-0.5,0-1,0-1.4-0.1c-0.3,0-0.6,0-0.9,0c-0.6,0-1.2-0.1-1.8-0.2c-0.1,0-0.2,0-0.3,0
		c-0.7-0.1-1.4-0.2-2-0.3c0,0,0,0-0.1,0c-3.4-0.5-6.3-1.3-8.6-2.2c0,0,0,0,0,0C8,38,7.6,37.8,7.2,37.7c0,0-0.1,0-0.1-0.1
		c-0.3-0.2-0.6-0.3-0.9-0.5C6.1,37.1,6,37,5.9,37c-0.3-0.2-0.5-0.3-0.7-0.5c-0.1-0.1-0.2-0.1-0.3-0.2c-0.2-0.1-0.4-0.3-0.5-0.4
		c-0.1-0.1-0.2-0.2-0.3-0.2c-0.1-0.1-0.3-0.3-0.4-0.4c-0.1-0.1-0.2-0.2-0.2-0.3c-0.1-0.1-0.2-0.2-0.2-0.4c-0.1-0.1-0.1-0.2-0.1-0.3
		c0-0.1-0.1-0.2-0.1-0.4C3,33.8,3,33.7,3,33.5v-8.2c0,0,0.1,0.1,0.1,0.1c0.2,0.2,0.4,0.4,0.7,0.6C7.5,28.8,15.1,31,26,31
		c10.9,0,18.4-2.2,22.2-5c0.3-0.2,0.6-0.4,0.8-0.7l0,0l0,3.7c0,0.6,0.4,1,1,1s1-0.4,1-1v-7v-0.5v-12V9c0-0.2-0.1-0.3-0.1-0.5
		C49.7,4.2,41.1,0,26,0S2.3,4.2,1.1,8.5C1.1,8.7,1,8.8,1,9v0.5v12V22v11.5V34v12c0,0.2,0,0.3,0.1,0.4c1.1,4.8,10.7,7.7,19.8,8.4
		c0,0,0.1,0,0.1,0c0.5,0,1-0.4,1-0.9c0-0.6-0.4-1-0.9-1.1C10,52,3.5,48.6,3,45.8c0,0,0-0.1,0-0.1v-8.4c0,0,0.1,0.1,0.1,0.1
		c0.2,0.2,0.4,0.4,0.7,0.6C7.5,40.8,15.1,43,26,43c0.6,0,1-0.4,1-1S26.6,41,26,41z M3.6,13.8c0.3,0.2,0.6,0.5,1,0.7
		c0.1,0,0.2,0.1,0.2,0.1c0.3,0.2,0.6,0.4,0.9,0.5c0.1,0.1,0.2,0.1,0.4,0.2c0.4,0.2,0.7,0.4,1.2,0.5c0.1,0,0.1,0.1,0.2,0.1
		c0.5,0.2,1,0.4,1.5,0.6c0.1,0.1,0.3,0.1,0.4,0.1c0.4,0.1,0.8,0.3,1.3,0.4c0.2,0,0.3,0.1,0.5,0.1c0.6,0.2,1.2,0.3,1.8,0.5
		c0.1,0,0.2,0,0.3,0.1c0.6,0.1,1.1,0.2,1.7,0.3c0.2,0,0.4,0.1,0.6,0.1c0.6,0.1,1.2,0.2,1.7,0.3c0.2,0,0.3,0,0.5,0.1
		c0.7,0.1,1.5,0.2,2.3,0.2c0.2,0,0.4,0,0.6,0c0.6,0,1.3,0.1,1.9,0.1c0.2,0,0.5,0,0.7,0c0.9,0,1.7,0,2.7,0s1.8,0,2.6,0
		c0.2,0,0.5,0,0.7,0c0.7,0,1.3-0.1,1.9-0.1c0.2,0,0.4,0,0.6,0c0.8-0.1,1.6-0.1,2.3-0.2c0.2,0,0.3,0,0.5-0.1c0.6-0.1,1.2-0.2,1.8-0.3
		c0.2,0,0.4-0.1,0.6-0.1c0.6-0.1,1.2-0.2,1.7-0.3c0.1,0,0.2,0,0.3-0.1c0.6-0.1,1.2-0.3,1.8-0.5c0.2,0,0.3-0.1,0.5-0.1
		c0.4-0.1,0.9-0.3,1.3-0.4c0.1,0,0.3-0.1,0.4-0.1c0.5-0.2,1-0.4,1.5-0.6c0.1,0,0.1-0.1,0.2-0.1c0.4-0.2,0.8-0.4,1.2-0.5
		c0.1-0.1,0.2-0.1,0.4-0.2c0.3-0.2,0.6-0.4,0.9-0.5c0.1,0,0.2-0.1,0.2-0.1c0.4-0.2,0.7-0.5,1-0.7c0.1-0.1,0.1-0.1,0.2-0.2
		c0.1-0.1,0.3-0.2,0.4-0.3v8.2c0,0.2,0,0.3-0.1,0.5c0,0.1-0.1,0.2-0.1,0.4c0,0.1-0.1,0.2-0.1,0.3c-0.1,0.1-0.1,0.2-0.2,0.4
		c-0.1,0.1-0.1,0.2-0.2,0.3c-0.1,0.1-0.2,0.3-0.4,0.4c-0.1,0.1-0.2,0.2-0.3,0.2c-0.2,0.1-0.3,0.3-0.5,0.4c-0.1,0.1-0.2,0.1-0.3,0.2
		c-0.2,0.2-0.5,0.3-0.7,0.5c-0.1,0-0.1,0.1-0.2,0.1c-0.3,0.2-0.6,0.3-0.9,0.5c0,0-0.1,0-0.1,0.1c-0.4,0.2-0.8,0.4-1.2,0.5
		c0,0,0,0,0,0c-2.3,0.9-5.2,1.7-8.6,2.2c0,0,0,0-0.1,0c-0.7,0.1-1.3,0.2-2,0.3c-0.1,0-0.2,0-0.3,0c-0.6,0.1-1.2,0.1-1.8,0.2
		c-0.3,0-0.6,0-0.9,0c-0.5,0-0.9,0.1-1.4,0.1c-0.8,0-1.6,0-2.4,0s-1.6,0-2.4,0c-0.5,0-1,0-1.4-0.1c-0.3,0-0.6,0-0.9,0
		c-0.6,0-1.2-0.1-1.8-0.2c-0.1,0-0.2,0-0.3,0c-0.7-0.1-1.4-0.2-2-0.3c0,0,0,0-0.1,0c-3.4-0.5-6.3-1.3-8.6-2.2c0,0,0,0,0,0
		C8,26,7.6,25.8,7.2,25.7c0,0-0.1,0-0.1-0.1c-0.3-0.2-0.6-0.3-0.9-0.5C6.1,25.1,6,25,5.9,25c-0.3-0.2-0.5-0.3-0.7-0.5
		c-0.1-0.1-0.2-0.1-0.3-0.2c-0.2-0.1-0.4-0.3-0.5-0.4c-0.1-0.1-0.2-0.2-0.3-0.2c-0.1-0.1-0.3-0.3-0.4-0.4c-0.1-0.1-0.2-0.2-0.2-0.3
		c-0.1-0.1-0.2-0.2-0.2-0.4c-0.1-0.1-0.1-0.2-0.1-0.3c0-0.1-0.1-0.2-0.1-0.4C3,21.8,3,21.7,3,21.5v-8.2c0.1,0.1,0.3,0.2,0.4,0.3
		C3.5,13.7,3.5,13.7,3.6,13.8z M26,2c13.6,0,23,4,23,7.5S39.6,17,26,17S3,13,3,9.5S12.4,2,26,2z"/>
</g>
</svg>
