<?xml version="1.0" encoding="utf-8"?>
<!-- Generator: Adobe Illustrator 21.0.0, SVG Export Plug-In . SVG Version: 6.00 Build 0)  -->
<svg version="1.1" id="Layer_1" xmlns="http://www.w3.org/2000/svg" xmlns:xlink="http://www.w3.org/1999/xlink" x="0px" y="0px"
	 viewBox="0 0 487.9 487.9" style="enable-background:new 0 0 487.9 487.9;" xml:space="preserve">
<style type="text/css">
	.st0{fill:#BE202E;}
	.st1{fill:#BE222F;}
</style>
<g>
	<path class="st0" d="M451.3,0H36.6C16.4,0,0,16.4,0,36.6v414.8c0,20.2,16.4,36.6,36.6,36.6h414.8c20.2,0,36.6-16.4,36.6-36.6V36.6
		C487.9,16.4,471.5,0,451.3,0z M467.1,438.6c0,15.8-12.8,28.5-28.5,28.5H49.3c-15.8,0-28.5-12.8-28.5-28.5V49.3
		c0-15.8,12.8-28.5,28.5-28.5h389.3c15.8,0,28.5,12.8,28.5,28.5V438.6z"/>
	<rect x="0" y="89.7" class="st1" width="487.9" height="22.8"/>
	<circle class="st1" cx="54.9" cy="57.2" r="15.6"/>
	<circle class="st1" cx="148" cy="57.2" r="15.6"/>
	<circle class="st1" cx="101.5" cy="57.2" r="15.6"/>
	<path class="st1" d="M203.4,434.5l-4.8-1.7c-5.1-1.8-7.7-7.4-5.8-12.5L291,150.1c1.8-5.1,7.4-7.7,12.5-5.8l4.8,1.7
		c5.1,1.8,7.7,7.4,5.8,12.5l-98.3,270.1C214,433.7,208.4,436.3,203.4,434.5z"/>
	<g>
		<path class="st1" d="M322.2,384.4L322.2,384.4c-3.8-3.8-3.8-10,0-13.8l87.6-87.6c3.8-3.8,10-3.8,13.8,0l0,0c3.8,3.8,3.8,10,0,13.8
			L336,384.4C332.2,388.2,326,388.2,322.2,384.4z"/>
		<path class="st1" d="M322.2,194.4L322.2,194.4c3.8-3.8,10-3.8,13.8,0l87.6,87.6c3.8,3.8,3.8,10,0,13.8h0c-3.8,3.8-10,3.8-13.8,0
			l-87.6-87.6C318.4,204.4,318.4,198.2,322.2,194.4z"/>
	</g>
	<g>
		<path class="st1" d="M171.2,194.4L171.2,194.4c3.8,3.8,3.8,10,0,13.8l-87.6,87.6c-3.8,3.8-10,3.8-13.8,0h0c-3.8-3.8-3.8-10,0-13.8
			l87.6-87.6C161.2,190.6,167.3,190.6,171.2,194.4z"/>
		<path class="st1" d="M171.2,384.4L171.2,384.4c-3.8,3.8-10,3.8-13.8,0l-87.6-87.6c-3.8-3.8-3.8-10,0-13.8h0c3.8-3.8,10-3.8,13.8,0
			l87.6,87.6C175,374.4,175,380.6,171.2,384.4z"/>
	</g>
</g>
</svg>
