<svg xmlns="http://www.w3.org/2000/svg" viewBox="0 0 45.15 35.82"><defs><style>.cls-1{fill:#be1e2d;}.cls-2{font-size:47.9px;fill:#27aae1;font-family:Couture-Bold, Couture;font-weight:700;}</style></defs><title>SB-LOGO</title><g id="Layer_1" data-name="Layer 1"><path class="cls-1" d="M38.66,16.36c3.17-1.56,4.8-3.86,4.8-7.48C43.47,2.21,38.91,0,32.17,0H14a8.21,8.21,0,0,0,1.55,3.83A7.83,7.83,0,0,0,16.66,5l6.65,1.09h7.28c2.77,0,5.35.75,5.35,4.11,0,3-2,4.26-4.76,4.26H23.31l-7.77,0v5.35H31.78c3.37,0,5.6,1.45,5.6,5.12s-2.72,4.72-5.75,4.72h-4A34.77,34.77,0,0,0,14.8,35.82H32.67c6.39,0,12.48-3.11,12.48-10.39C45.15,21,43,17.61,38.66,16.36Z"/><text class="cls-2" transform="translate(-1.13 35.01)">S</text></g></svg>
