<svg id="Layer_1" data-name="Layer 1" xmlns="http://www.w3.org/2000/svg" viewBox="0 0 45.13 35.83"><defs><style>.cls-1{fill:#be1e2d;}.cls-2{fill:none;}.cls-3{fill:#27aae1;}</style></defs><title>SB-LOGO</title><path class="cls-1" d="M38.65,16.36c3.17-1.56,4.8-3.86,4.8-7.48C43.45,2.21,38.89,0,32.16,0H14A24,24,0,0,1,26.58,6.12h4c2.77,0,5.35.75,5.35,4.11,0,3-2,4.26-4.76,4.26H23.29l-7.77,0v5.35H31.76c3.37,0,5.6,1.45,5.6,5.12s-2.72,4.72-5.75,4.72h-4a17.87,17.87,0,0,1-4.23,3.56,18.22,18.22,0,0,1-8.62,2.57H32.65c6.39,0,12.48-3.11,12.48-10.39C45.13,21,43,17.61,38.65,16.36Z"/><path class="cls-2" d="M7.28,24.86C8,29.36,12.07,30,14.85,30s6.66-.77,6.66-4.26c0-7.28-20.36-2.59-20.36-15.38C1.15,3.31,7.76,0,13.94,0c7.14,0,13.7,3.11,13.7,11L20.36,10c-.91-4-4.41-4.12-6.75-4.12s-5.17,1-5.17,3.88c0,2.54,1.63,3.11,10.2,5.17,2.54.62,10.15,2.2,10.15,10,0,6.27-4.89,11-14.23,11C6.9,35.83,0,32.09,0,23.66Z"/><path class="cls-3" d="M7.28,24.86C8,29.36,12.07,30,14.85,30s6.66-.77,6.66-4.26c0-7.28-20.36-2.59-20.36-15.38C1.15,3.31,7.76,0,13.94,0c7.14,0,13.7,3.11,13.7,11L20.36,10c-.91-4-4.41-4.12-6.75-4.12s-5.17,1-5.17,3.88c0,2.54,1.63,3.11,10.2,5.17,2.54.62,10.15,2.2,10.15,10,0,6.27-4.89,11-14.23,11C6.9,35.83,0,32.09,0,23.66Z"/></svg>
