<?xml version="1.0" encoding="utf-8"?>
<!-- Generator: Adobe Illustrator 21.0.0, SVG Export Plug-In . SVG Version: 6.00 Build 0)  -->
<svg version="1.1" id="Layer_1" xmlns="http://www.w3.org/2000/svg" xmlns:xlink="http://www.w3.org/1999/xlink" x="0px" y="0px"
	 viewBox="0 0 226.4 164.1" style="enable-background:new 0 0 226.4 164.1;" xml:space="preserve">
<style type="text/css">
	.st0{fill:#BE202E;}
	.st1{fill:#FFFFFF;}
</style>
<path class="st0" d="M215.7,0h-167C42.8,0,38,4.8,38,10.7V127c0,5.9,4.8,10.7,10.7,10.7h167c5.9,0,10.7-4.8,10.7-10.7V10.7
	C226.3,4.8,221.6,0,215.7,0z M218.3,125.5c0,2.3-1.8,4.1-4.1,4.1H50.1c-2.3,0-4.1-1.8-4.1-4.1V12.2c0-2.3,1.8-4.1,4.1-4.1h164.2
	c2.3,0,4.1,1.8,4.1,4.1V125.5z"/>
<rect x="114.2" y="136.8" class="st0" width="35.9" height="27.3"/>
<path class="st0" d="M171.4,164.1H92.9c-1.3,0-2.4-1.1-2.4-2.4v-5.3c0-1.3,1.1-2.4,2.4-2.4h78.5c1.3,0,2.4,1.1,2.4,2.4v5.3
	C173.8,163,172.8,164.1,171.4,164.1z"/>
<path class="st0" d="M66.6,164.1h-59c-4.2,0-7.6-3.4-7.6-7.6V58.6c0-4.2,3.4-7.6,7.6-7.6h59c4.2,0,7.6,3.4,7.6,7.6v97.8
	C74.2,160.7,70.8,164.1,66.6,164.1z"/>
<path class="st1" d="M65.8,150.6H8.4c-1.4,0-2.5-1.1-2.5-2.5V67c0-1.4,1.1-2.5,2.5-2.5h57.3c1.4,0,2.5,1.1,2.5,2.5v81.2
	C68.3,149.5,67.1,150.6,65.8,150.6z"/>
<path class="st1" d="M44.4,59.2H29.7c-0.8,0-1.4-0.6-1.4-1.4v0c0-0.8,0.6-1.4,1.4-1.4h14.7c0.8,0,1.4,0.6,1.4,1.4v0
	C45.9,58.6,45.2,59.2,44.4,59.2z"/>
<circle class="st1" cx="37.1" cy="157.3" r="3.6"/>
</svg>
