<?xml version="1.0" encoding="utf-8"?>
<!-- Generator: Adobe Illustrator 21.0.0, SVG Export Plug-In . SVG Version: 6.00 Build 0)  -->
<svg version="1.1" id="Layer_1" xmlns="http://www.w3.org/2000/svg" xmlns:xlink="http://www.w3.org/1999/xlink" x="0px" y="0px"
	 viewBox="0 0 210.6 361.1" style="enable-background:new 0 0 210.6 361.1;" xml:space="preserve">
<style type="text/css">
	.st0{fill:#3EB2E2;}
</style>
<path class="st0" d="M202,201.4l-0.5,0.5c-11.5,11.5-30.2,11.5-41.7,0L8.6,50.9C-2.9,39.4-2.9,20.7,8.6,9.2l0.5-0.5
	c11.5-11.5,30.2-11.5,41.7,0L202,159.7C213.5,171.2,213.5,189.9,202,201.4z"/>
<path class="st0" d="M9.2,352.5l-0.5-0.5c-11.5-11.5-11.5-30.2,0-41.7l151.1-151.1c11.5-11.5,30.2-11.5,41.7,0l0.5,0.5
	c11.5,11.5,11.5,30.2,0,41.7L50.9,352.5C39.4,364,20.7,364,9.2,352.5z"/>
</svg>
