<?xml version="1.0" encoding="utf-8"?>
<!-- Generator: Adobe Illustrator 21.0.0, SVG Export Plug-In . SVG Version: 6.00 Build 0)  -->
<svg version="1.1" id="Layer_1" xmlns="http://www.w3.org/2000/svg" xmlns:xlink="http://www.w3.org/1999/xlink" x="0px" y="0px"
	 viewBox="0 0 32 32" style="enable-background:new 0 0 32 32;" xml:space="preserve">
<style type="text/css">
	.st0{fill:#010101;}
	.st1{fill:#BE202E;}
	.st2{fill:#29AAE1;}
</style>
<g>
	<g id="Layer_2_1_">
		<path class="st0" d="M14.4,21.6"/>
	</g>
	<g id="Layer_1_2_">
		<g>
			<path class="st1" d="M23.8,15.2c1.6-0.8,2.3-1.9,2.3-3.6c0-3.3-2.2-4.3-5.5-4.3h-8.1c0,0.1-0.5,1,0,1.8c0.1,0.3,0.4,0.5,0.5,0.6
				c1.1,0.2,2.1,0.3,3.3,0.5h3.5c1.4,0,2.6,0.4,2.6,2c0,1.5-1,2.1-2.3,2.1h-3.8h-3.8c0,0.9,0,1.7,0,2.6c1.3,0,2.5,0,3.8,0h4.1
				c1.6,0,2.7,0.7,2.7,2.5c0,1.8-1.3,2.3-2.8,2.3h-4c-0.5,0-1.1-0.1-1.9,0c-0.6,0.1-1.2,0.2-1.6,0.4c-0.1,0.9-0.2,1.7-0.3,2.6h8.3
				c3.1,0,6.1-1.5,6.1-5C26.9,17.5,25.9,15.8,23.8,15.2z"/>
		</g>
		<g>
			<path class="st2" d="M8.6,19.4c0.4,2.2,2.3,2.5,3.7,2.5c1.3,0,3.3-0.4,3.3-2.1c0-3.5-9.9-1.3-9.9-7.5c0-3.4,3.2-5,6.2-5
				c3.4,0,6.6,1.5,6.6,5.3l-3.5-0.5c-0.4-1.9-2.1-2-3.3-2S9.1,10.6,9.1,12c0,1.2,0.8,1.5,4.9,2.5c1.2,0.3,4.9,1.1,4.9,4.9
				c0,3.1-2.4,5.3-6.9,5.3c-3.7,0-7-1.8-7-5.9L8.6,19.4z"/>
		</g>
		<g>
		</g>
		<g>
		</g>
		<g>
		</g>
		<g>
		</g>
		<g>
		</g>
		<g>
		</g>
	</g>
</g>
</svg>
