<?xml version="1.0" encoding="utf-8"?>
<!-- Generator: Adobe Illustrator 21.0.0, SVG Export Plug-In . SVG Version: 6.00 Build 0)  -->
<svg version="1.1" id="Capa_1" xmlns="http://www.w3.org/2000/svg" xmlns:xlink="http://www.w3.org/1999/xlink" x="0px" y="0px"
	 viewBox="0 0 55.3 55.3" style="enable-background:new 0 0 55.3 55.3;" xml:space="preserve">
<style type="text/css">
	.st0{fill:#BE1E2D;}
</style>
<path class="st0" d="M52.6,2.6c-3.5-3.5-9.2-3.5-12.7,0L3.8,38.7c0,0,0,0,0,0.1c0,0,0,0-0.1,0.1c-0.1,0.1-0.1,0.2-0.1,0.2
	c0,0,0,0,0,0.1c0,0,0,0,0,0L0,54c0,0.1,0,0.1,0,0.2c0,0,0,0,0,0c0,0.1,0,0.2,0.1,0.3c0,0,0,0,0,0.1c0,0.1,0.1,0.2,0.2,0.3
	c0.1,0.1,0.2,0.2,0.3,0.2s0.3,0.1,0.4,0.1c0.1,0,0.2,0,0.2,0l14.9-3.5c0,0,0.1,0,0.1,0c0,0,0.1,0,0.1,0c0.1,0,0.1-0.1,0.2-0.1
	c0,0,0,0,0.1-0.1c0,0,0,0,0,0l36.1-36.1C56.1,11.8,56.1,6.1,52.6,2.6z M51.2,4c2.5,2.5,2.7,6.4,0.7,9.1l-9.8-9.8
	C44.8,1.3,48.7,1.6,51.2,4z M50.5,14.5c-3.4-3.1-6.9-6.3-10.3-9.4c0.6-0.6,1.3-1.1,1.9-1.7c3.3,3.3,6.5,6.5,9.8,9.8
	C51.4,13.6,51,14,50.5,14.5z M5,50.3c-0.4-0.4-1-0.4-1.4,0L2.8,51l2.6-10.7l4.4-0.5l-0.6,5.1c0,0,0,0.1,0,0.1c0,0,0,0.1,0,0.1
	c0,0,0,0.1,0,0.1c0,0.1,0,0.1,0.1,0.2c0,0.1,0.1,0.1,0.1,0.2c0,0,0.1,0.1,0.1,0.1c0,0.1,0.1,0.1,0.2,0.1c0,0,0.1,0.1,0.1,0.1
	c0.1,0,0.1,0,0.2,0.1c0,0,0.1,0,0.1,0c0,0,0.1,0,0.1,0h0h0h0h0c0,0,0.1,0,0.1,0l5.1-0.6l-0.5,4.4L4.2,52.5L5,51.7
	C5.4,51.3,5.4,50.7,5,50.3z M17.5,44.8l22.4-22.4c0.4-0.4,0.4-1,0-1.4s-1-0.4-1.4,0L16.1,43.4l-4.8,0.5l0.5-4.8l22.4-22.4
	c0.4-0.4,0.4-1,0-1.4s-1-0.4-1.4,0L10.4,37.7l-3.2,0.4c10.4-10.5,20.9-21,31.3-31.5c3.4,3.2,6.8,6.3,10.3,9.5
	C38.3,26.8,27.7,37.4,17.2,48L17.5,44.8z"/>
</svg>
